<svg width="150" height="150" fill="none" xmlns="http://www.w3.org/2000/svg">
    <circle cx="75" cy="75" r="73" stroke="#80C342" stroke-width="4"/>
    <g clip-path="url(#a)">
        <path d="M75.13 114.2c-1.1 0-2-.9-2-2V72.66c0-1.1.9-2 2-2s2 .9 2 2v39.54c0 1.1-.9 2-2 2z" fill="#000"/>
        <path d="M83.28 69.73c0-4.5-3.65-8.15-8.15-8.15s-8.15 3.65-8.15 8.15 3.65 8.15 8.15 8.15 8.15-3.65 8.15-8.15z" fill="#005BAA"/>
        <path d="M75.13 79.88c-5.6 0-10.15-4.55-10.15-10.15 0-5.6 4.55-10.15 10.15-10.15 5.6 0 10.15 4.55 10.15 10.15 0 5.6-4.55 10.15-10.15 10.15zm0-16.3c-3.39 0-6.15 2.76-6.15 6.15 0 3.39 2.76 6.15 6.15 6.15 3.39 0 6.15-2.76 6.15-6.15 0-3.39-2.76-6.15-6.15-6.15z" fill="#005BAA"/>
        <path d="M90.22 86.82a2.004 2.004 0 0 1-1.41-3.42c3.65-3.65 5.67-8.51 5.67-13.68s-2.01-10.02-5.67-13.68c-.78-.78-.78-2.05 0-2.83.78-.78 2.05-.78 2.83 0 4.41 4.41 6.84 10.27 6.84 16.5s-2.43 12.1-6.84 16.5c-.4.41-.91.61-1.42.61zM60.04 86.82c-.51 0-1.02-.2-1.41-.59-4.41-4.41-6.84-10.27-6.84-16.5s2.43-12.1 6.84-16.5c.78-.78 2.05-.78 2.83 0 .78.78.78 2.05 0 2.83a19.229 19.229 0 0 0-5.67 13.68c0 5.17 2.01 10.02 5.67 13.68.78.78.78 2.05 0 2.83-.4.37-.91.57-1.42.57z" fill="#000"/>
        <path d="M97.86 94.46a2.004 2.004 0 0 1-1.41-3.42c11.75-11.75 11.75-30.88 0-42.63-.78-.78-.78-2.05 0-2.83.78-.78 2.05-.78 2.83 0 13.31 13.31 13.31 34.98 0 48.29-.4.4-.91.59-1.42.59zM52.4 94.46c-.51 0-1.02-.2-1.41-.59-13.32-13.31-13.32-34.97-.01-48.28.78-.78 2.05-.78 2.83 0 .78.78.78 2.05 0 2.83-11.75 11.75-11.75 30.88 0 42.63.78.78.78 2.05 0 2.83-.39.39-.9.58-1.41.58z" fill="#000"/>
    </g>
    <defs>
        <clipPath id="a">
            <path fill="#fff" transform="translate(41 45)" d="M0 0h68.26v69.2H0z"/>
        </clipPath>
    </defs>
</svg>
