<svg width="150" height="150" fill="none" xmlns="http://www.w3.org/2000/svg">
    <circle cx="75" cy="75" r="73" stroke="#80C342" stroke-width="4"/>
    <g clip-path="url(#a)">
        <path d="M73.82 105.96c-.31 0-.62-.07-.9-.21L41.1 89.8a2.007 2.007 0 0 1 .2-3.67l17.04-6.3c1.03-.38 2.19.15 2.57 1.18.38 1.04-.15 2.19-1.18 2.57l-12.72 4.7 26.92 13.49 28.24-10.44-12.92-6.47c-.99-.5-1.39-1.7-.89-2.68.49-.99 1.69-1.39 2.68-.89l17.04 8.54a2.007 2.007 0 0 1-.2 3.67l-33.37 12.34c-.22.08-.46.12-.69.12z" fill="#000"/>
        <path d="M73.82 91.12c-.31 0-.62-.07-.9-.21L41.1 74.97a2.007 2.007 0 0 1 .2-3.67L58.35 65c1.03-.38 2.19.15 2.57 1.18.38 1.04-.15 2.19-1.18 2.57l-12.72 4.7 26.92 13.49 28.24-10.44-12.92-6.47c-.99-.5-1.39-1.7-.89-2.68.49-.99 1.69-1.39 2.68-.89L108.09 75a2.007 2.007 0 0 1-.2 3.67L74.51 91c-.22.08-.46.12-.69.12z" fill="#005BAA"/>
        <path d="M73.82 76.29c-.31 0-.62-.07-.9-.21L41.1 60.13a2.007 2.007 0 0 1 .2-3.67l33.39-12.34c.52-.19 1.09-.16 1.59.09l31.82 15.95a2.007 2.007 0 0 1-.2 3.67L74.51 76.16c-.22.08-.46.13-.69.13zm-26.8-17.67 26.92 13.49 28.24-10.44-26.92-13.49-28.24 10.44z" fill="#000"/>
    </g>
    <defs>
        <clipPath id="a">
            <path fill="#fff" transform="translate(40 44)" d="M0 0h69.2v61.96H0z"/>
        </clipPath>
    </defs>
</svg>
