<svg width="150" height="150" fill="none" xmlns="http://www.w3.org/2000/svg">
    <circle cx="75" cy="75" r="73" stroke="#80C342" stroke-width="4"/>
    <g clip-path="url(#a)">
        <path d="M89.96 104.69c-1.1 0-2-.9-2-2V67.27L74.6 59.55l-13.36 7.71v35.42c0 1.1-.9 2-2 2s-2-.9-2-2V66.11c0-.71.38-1.38 1-1.73l15.36-8.87c.62-.36 1.38-.36 2 0l15.36 8.87c.62.36 1 1.02 1 1.73v36.58a2 2 0 0 1-2 2z" fill="#000"/>
        <path d="M107.2 104.69H42c-1.1 0-2-.9-2-2V74.44c0-1.1.9-2 2-2h15.71c1.1 0 2 .9 2 2s-.9 2-2 2H44v24.25h61.2V76.44H90.85c-1.1 0-2-.9-2-2s.9-2 2-2h16.35c1.1 0 2 .9 2 2v28.25c0 1.1-.9 2-2 2zM74.6 59.24c-1.1 0-2-.9-2-2V47c0-1.1.9-2 2-2h7.02c1.1 0 2 .9 2 2v6.25c0 1.1-.9 2-2 2H76.6v1.99a2 2 0 0 1-2 2zm2-7.99h3.02V49H76.6v2.25z" fill="#000"/>
        <path d="M68.41 79.09A2.004 2.004 0 0 1 67 75.67l2.62-2.62c.78-.78 2.05-.78 2.83 0 .78.78.78 2.05 0 2.83l-2.62 2.62c-.39.4-.91.59-1.42.59zM78.16 79.09a2.004 2.004 0 0 1-1.41-3.42l2.62-2.62c.78-.78 2.05-.78 2.83 0 .78.78.78 2.05 0 2.83l-2.62 2.62c-.4.4-.91.59-1.42.59zM68.41 88.09A2.004 2.004 0 0 1 67 84.67l2.62-2.62c.78-.78 2.05-.78 2.83 0 .78.78.78 2.05 0 2.83l-2.62 2.62c-.39.4-.91.59-1.42.59zM78.16 88.09a2.004 2.004 0 0 1-1.41-3.42l2.62-2.62c.78-.78 2.05-.78 2.83 0 .78.78.78 2.05 0 2.83l-2.62 2.62c-.4.4-.91.59-1.42.59z" fill="#005BAA"/>
    </g>
    <defs>
        <clipPath id="a">
            <path fill="#fff" transform="translate(40 45)" d="M0 0h69.2v59.69H0z"/>
        </clipPath>
    </defs>
</svg>
