<svg width="150" height="150" fill="none" xmlns="http://www.w3.org/2000/svg">
    <circle cx="75" cy="75" r="73" stroke="#80C342" stroke-width="4"/>
    <g clip-path="url(#a)">
        <path d="M53.22 91.7C47.59 91.7 43 87.11 43 81.47V70.88c0-5.64 4.59-10.22 10.22-10.22 1.1 0 2 .9 2 2s-.9 2-2 2c-3.43 0-6.22 2.79-6.22 6.22v10.59c0 3.43 2.79 6.22 6.22 6.22a2.006 2.006 0 0 1 0 4.01zM96.07 91.7c-1.1 0-2-.9-2-2s.9-2 2-2c3.43 0 6.22-2.79 6.22-6.22v-10.6c0-3.43-2.79-6.22-6.22-6.22-1.1 0-2-.9-2-2s.9-2 2-2c5.64 0 10.22 4.58 10.22 10.22v10.59c0 5.64-4.59 10.23-10.22 10.23z" fill="#000"/>
        <path d="M95.76 91.7c-1.1 0-2-.9-2-2V59.87c0-8.75-7.12-15.87-15.87-15.87h-6.5c-8.75 0-15.87 7.12-15.87 15.87V89.7c0 1.1-.9 2-2 2s-2-.9-2-2V59.87C51.52 48.91 60.44 40 71.39 40h6.5c10.96 0 19.87 8.91 19.87 19.87V89.7a2 2 0 0 1-2 2z" fill="#000"/>
        <path d="M78.29 105.62h-.09c-1.1-.01-1.99-.92-1.98-2.02.01-1.1.91-1.98 2-1.98h.04c.45 0 9.89-.07 14.72-4.85 1.87-1.86 2.78-4.15 2.78-7.02 0-1.1.9-2 2-2s2 .9 2 2c0 3.94-1.34 7.26-3.98 9.87-5.9 5.84-16.33 6-17.49 6z" fill="#000"/>
        <path d="M74.64 109.2c-3.07 0-5.57-2.5-5.57-5.57 0-3.07 2.5-5.57 5.57-5.57 3.07 0 5.57 2.5 5.57 5.57.01 3.07-2.49 5.57-5.57 5.57zm0-7.15c-.87 0-1.57.71-1.57 1.57 0 .87.71 1.57 1.57 1.57.87 0 1.57-.71 1.57-1.57.01-.86-.7-1.57-1.57-1.57z" fill="#005BAA"/>
    </g>
    <defs>
        <clipPath id="a">
            <path fill="#fff" transform="translate(43 40)" d="M0 0h63.29v69.2H0z"/>
        </clipPath>
    </defs>
</svg>
