<svg width="150" height="150" fill="none" xmlns="http://www.w3.org/2000/svg">
    <circle cx="75" cy="75" r="73" stroke="#80C342" stroke-width="4"/>
    <g clip-path="url(#a)">
        <path d="M101.35 106.04H49.84c-1.1 0-2-.9-2-2V64.12c0-.65.32-1.26.85-1.64l25.76-18.12a2 2 0 0 1 2.3 0l25.76 18.12c.53.37.85.98.85 1.64v39.92c-.01 1.11-.9 2-2.01 2zm-49.51-4h47.51V65.16L75.6 48.45 51.84 65.16v36.88z" fill="#000"/>
        <path d="M108.2 70.94c-.4 0-.8-.12-1.15-.36L75.6 48.45 44.15 70.57c-.9.64-2.15.42-2.79-.48-.64-.9-.42-2.15.48-2.79l32.6-22.94c.69-.49 1.61-.49 2.3 0l32.6 22.94c.9.64 1.12 1.88.48 2.79-.38.55-1 .85-1.62.85z" fill="#000"/>
        <path d="M83.6 83.69h-16c-1.1 0-2-.9-2-2s.9-2 2-2h16c1.1 0 2 .9 2 2s-.9 2-2 2z" fill="#005BAA"/>
        <path d="M75.6 91.69c-1.1 0-2-.9-2-2v-16c0-1.1.9-2 2-2s2 .9 2 2v16c0 1.1-.9 2-2 2z" fill="#005BAA"/>
        <path d="M83.6 83.69h-16c-1.1 0-2-.9-2-2s.9-2 2-2h16c1.1 0 2 .9 2 2s-.9 2-2 2z" fill="#005BAA"/>
        <path d="M83.6 83.69h-16c-1.1 0-2-.9-2-2s.9-2 2-2h16c1.1 0 2 .9 2 2s-.9 2-2 2z" fill="#005BAA"/>
    </g>
    <defs>
        <clipPath id="a">
            <path fill="#fff" transform="translate(41 44)" d="M0 0h69.2v62.04H0z"/>
        </clipPath>
    </defs>
</svg>
