<svg width="150" height="150" fill="none" xmlns="http://www.w3.org/2000/svg">
    <circle cx="75" cy="75" r="73" stroke="#80C342" stroke-width="4"/>
    <g clip-path="url(#a)">
        <path d="M45 109.18c-.32 0-.63-.07-.92-.23a1.979 1.979 0 0 1-1.08-1.77V71.64c0-.65.32-1.26.85-1.64 4.68-3.29 10.19-5.02 15.94-5.02 5.29 0 10.37 1.47 14.79 4.26 4.42-2.79 9.5-4.26 14.79-4.26 5.75 0 11.26 1.74 15.94 5.02.53.37.85.98.85 1.64v35.54c0 .75-.42 1.43-1.08 1.77-.66.34-1.46.29-2.07-.14-4-2.81-8.71-4.3-13.64-4.3-4.92 0-9.64 1.49-13.64 4.3-.69.49-1.61.49-2.3 0-4-2.81-8.72-4.3-13.64-4.3s-9.64 1.49-13.64 4.3c-.34.25-.75.37-1.15.37zm14.79-8.66c5.29 0 10.37 1.47 14.79 4.26 4.42-2.79 9.5-4.26 14.79-4.26 4.51 0 8.86 1.07 12.79 3.11V72.71a23.61 23.61 0 0 0-12.79-3.73c-4.92 0-9.64 1.49-13.64 4.3-.69.48-1.61.48-2.3 0-4-2.81-8.72-4.3-13.64-4.3-4.58 0-8.98 1.29-12.79 3.73v30.92c3.93-2.04 8.28-3.11 12.79-3.11z" fill="#000"/>
        <path d="M92.06 51.47c-.52 0-1.04-.2-1.43-.61-8.73-8.98-23.14-9.18-32.12-.45-.79.77-2.06.75-2.83-.04s-.75-2.06.04-2.83c10.55-10.26 27.5-10.02 37.77.54.77.79.75 2.06-.04 2.83-.39.38-.89.56-1.39.56z" fill="#005BAA"/>
        <path d="M85.99 57.38c-.52 0-1.04-.2-1.43-.61-5.48-5.63-14.52-5.76-20.15-.28-.79.77-2.06.75-2.83-.04s-.75-2.06.04-2.83c7.22-7.01 18.79-6.85 25.81.36a2.004 2.004 0 0 1-1.44 3.4z" fill="#005BAA"/>
        <path d="M80.27 62.94c-.52 0-1.04-.2-1.43-.61-2.41-2.48-6.39-2.53-8.87-.12-.79.77-2.06.75-2.83-.04s-.75-2.06.04-2.83c4.06-3.95 10.58-3.86 14.53.2a2.004 2.004 0 0 1-1.44 3.4z" fill="#005BAA"/>
    </g>
    <defs>
        <clipPath id="a">
            <path fill="#fff" transform="translate(43 40)" d="M0 0h63.16v69.19H0z"/>
        </clipPath>
    </defs>
</svg>
