<svg width="98" height="95" viewBox="0 0 98 95" fill="none" xmlns="http://www.w3.org/2000/svg">
<g clip-path="url(#clip0)">
<path d="M26.09 16.45C22.17 16.45 18.78 13.66 18.03 9.82C17.6 7.67 18.04 5.47 19.27 3.65C20.49 1.83 22.35 0.59 24.51 0.16C25.03 0.05 25.56 0 26.1 0C30.01 0 33.4 2.79 34.16 6.63C35.04 11.08 32.13 15.41 27.69 16.29C27.16 16.4 26.62 16.45 26.09 16.45ZM26.1 3.5C25.79 3.5 25.48 3.53 25.18 3.59C23.94 3.83 22.88 4.55 22.17 5.59C21.47 6.64 21.22 7.9 21.46 9.13C21.9 11.34 23.84 12.94 26.09 12.94C26.4 12.94 26.7 12.91 27.01 12.85C29.56 12.35 31.23 9.86 30.73 7.3C30.29 5.1 28.34 3.5 26.1 3.5Z" fill="#E5E5E5"/>
<path d="M16.06 75.22C14.19 75.22 12.42 74.31 11.34 72.79C10.44 71.53 10.09 69.99 10.34 68.47C10.59 66.97 11.41 65.65 12.63 64.75L19.68 58.89L20.8 46.61L20.58 34.91L19.11 36.17L15.62 45.07C14.87 46.99 13.21 48.38 11.18 48.78C10.05 49 8.89001 48.9 7.82001 48.48C4.73001 47.27 3.20001 43.77 4.41001 40.68L8.45001 30.38C8.81001 29.47 9.39001 28.65 10.13 28.01L20.47 19.13C20.56 19.06 20.65 18.99 20.75 18.93C20.87 18.86 23.65 17.32 27.82 17.32C29.28 17.32 30.76 17.51 32.2 17.89L41.02 20.54L53.5 19.78C53.62 19.77 53.75 19.77 53.87 19.77C57.05 19.77 59.69 22.26 59.88 25.43C59.98 27.03 59.44 28.58 58.38 29.79C57.31 30.99 55.84 31.71 54.24 31.81L40.68 32.64C39.99 32.68 39.27 32.6 38.58 32.39L37.95 32.2L38.65 39.83L49.2 41.68C51.52 42.08 53.4 43.82 53.99 46.1L57.36 59.04C58.2 62.25 56.26 65.55 53.05 66.38C52.55 66.51 52.04 66.57 51.53 66.57C48.79 66.57 46.39 64.72 45.7 62.07L43.31 52.88L33.55 51.17L31.85 62.25C31.85 62.27 31.84 62.31 31.83 62.34C31.82 64.21 30.93 65.95 29.4 67.04L19.42 74.16C18.44 74.85 17.28 75.22 16.06 75.22ZM22.26 29.41C22.5 29.41 22.75 29.46 22.97 29.56C23.59 29.84 23.99 30.45 24 31.12L24.3 46.63C24.3 46.69 24.3 46.76 24.29 46.82L23.1 59.93C23.06 60.39 22.83 60.82 22.48 61.12L14.83 67.48C14.8 67.51 14.76 67.53 14.73 67.56C14.23 67.91 13.9 68.44 13.8 69.05C13.7 69.66 13.84 70.26 14.2 70.76C14.91 71.75 16.41 72.01 17.41 71.3L27.39 64.18C28.02 63.73 28.38 63 28.35 62.22C28.34 62.09 28.35 61.96 28.38 61.83C28.39 61.8 28.41 61.69 28.42 61.66L30.38 48.86C30.45 48.4 30.71 47.98 31.09 47.7C31.47 47.43 31.95 47.32 32.41 47.4L45.04 49.61C45.72 49.73 46.26 50.23 46.43 50.89L49.11 61.17C49.45 62.49 50.85 63.32 52.19 62.97C53.53 62.62 54.34 61.24 53.99 59.89L50.6 46.96C50.35 46.01 49.56 45.28 48.6 45.11L36.73 43.03C35.95 42.89 35.36 42.25 35.29 41.47L34.23 29.93C34.18 29.35 34.42 28.78 34.87 28.41C35.32 28.04 35.93 27.92 36.48 28.09L39.6 29.03C39.84 29.1 40.08 29.14 40.33 29.14H40.48L54.04 28.31C54.71 28.27 55.33 27.97 55.77 27.47C56.22 26.97 56.44 26.32 56.4 25.65C56.32 24.32 55.21 23.28 53.88 23.28H53.73L40.94 24.06C40.73 24.07 40.53 24.05 40.33 23.99L31.27 21.26C30.18 20.98 29 20.82 27.83 20.82C25.06 20.82 23.11 21.68 22.61 21.92L12.42 30.67C12.11 30.94 11.86 31.28 11.71 31.66L7.67001 41.96C7.16001 43.25 7.80001 44.72 9.10001 45.23C9.55001 45.41 10.03 45.45 10.5 45.36C11.35 45.19 12.04 44.61 12.36 43.81L16.01 34.5C16.11 34.23 16.28 34 16.5 33.81L21.12 29.84C21.44 29.55 21.85 29.41 22.26 29.41Z" fill="#E5E5E5"/>
<path d="M32.93 94.92C31.96 94.92 31.18 94.14 31.18 93.17V82.28H3.5V93.17C3.5 94.14 2.72 94.92 1.75 94.92C0.78 94.92 0 94.14 0 93.17V80.53C0 79.56 0.78 78.78 1.75 78.78H32.93C33.9 78.78 34.68 79.56 34.68 80.53V93.17C34.68 94.14 33.9 94.92 32.93 94.92Z" fill="#80C342"/>
<path d="M64.11 94.92C63.14 94.92 62.36 94.14 62.36 93.17V75.11H34.68V93.16C34.68 94.13 33.9 94.91 32.93 94.91C31.96 94.91 31.18 94.13 31.18 93.16V73.36C31.18 72.39 31.96 71.61 32.93 71.61H64.11C65.08 71.61 65.86 72.39 65.86 73.36V93.16C65.86 94.14 65.08 94.92 64.11 94.92Z" fill="#80C342"/>
<path d="M95.29 94.92C94.32 94.92 93.54 94.14 93.54 93.17V64.16H65.86V93.17C65.86 94.14 65.08 94.92 64.11 94.92C63.14 94.92 62.36 94.14 62.36 93.17V62.41C62.36 61.44 63.14 60.66 64.11 60.66H95.29C96.26 60.66 97.04 61.44 97.04 62.41V93.17C97.04 94.14 96.26 94.92 95.29 94.92Z" fill="#80C342"/>
</g>
<defs>
<clipPath id="clip0">
<rect width="97.04" height="94.92" fill="white"/>
</clipPath>
</defs>
</svg>
