<svg width="89" height="98" viewBox="0 0 89 98" fill="none" xmlns="http://www.w3.org/2000/svg">
<g clip-path="url(#clip0)">
<path d="M5.32001 43.91C4.35001 43.91 3.57001 43.13 3.57001 42.16V38.89C3.57001 37.92 4.35001 37.14 5.32001 37.14C6.29001 37.14 7.07001 37.92 7.07001 38.89V42.16C7.07001 43.12 6.29001 43.91 5.32001 43.91Z" fill="#E5E5E5"/>
<path d="M5.32001 97.04C4.35001 97.04 3.57001 96.26 3.57001 95.29V54.2C3.57001 53.23 4.35001 52.45 5.32001 52.45C6.29001 52.45 7.07001 53.23 7.07001 54.2V95.29C7.07001 96.26 6.29001 97.04 5.32001 97.04Z" fill="#E5E5E5"/>
<path d="M83.49 43.91C82.52 43.91 81.74 43.13 81.74 42.16V38.89C81.74 37.92 82.52 37.14 83.49 37.14C84.46 37.14 85.24 37.92 85.24 38.89V42.16C85.24 43.12 84.45 43.91 83.49 43.91Z" fill="#E5E5E5"/>
<path d="M83.49 97.04C82.52 97.04 81.74 96.26 81.74 95.29V54.2C81.74 53.23 82.52 52.45 83.49 52.45C84.46 52.45 85.24 53.23 85.24 54.2V95.29C85.24 96.26 84.45 97.04 83.49 97.04Z" fill="#E5E5E5"/>
<path d="M55.98 46.36C55.01 46.36 54.23 45.58 54.23 44.61V30.53C54.23 29.85 54.62 29.24 55.23 28.95L66.42 23.69C66.89 23.47 67.28 23.09 67.51 22.63L72.47 12.74C72.75 12.18 72.8 11.55 72.6 10.96C72.4 10.37 71.99 9.89 71.43 9.61C70.87 9.33 70.24 9.28 69.65 9.48C69.06 9.68 68.58 10.09 68.3 10.65L63.97 19.28C63.79 19.63 63.51 19.91 63.15 20.08L52.26 25.2C52.03 25.31 51.77 25.37 51.51 25.37H37.29C37.03 25.37 36.78 25.31 36.54 25.2L25.65 20.08C25.3 19.91 25.01 19.63 24.83 19.28L20.5 10.65C19.92 9.5 18.52 9.04 17.37 9.61C16.81 9.89 16.4 10.37 16.2 10.96C16 11.55 16.05 12.18 16.33 12.74L21.29 22.63C21.52 23.1 21.91 23.47 22.38 23.69L33.57 28.95C34.18 29.24 34.57 29.86 34.57 30.53V44.61C34.57 45.58 33.79 46.36 32.82 46.36C31.85 46.36 31.07 45.58 31.07 44.61V31.64L20.9 26.85C19.72 26.3 18.75 25.35 18.17 24.19L13.21 14.3C12.51 12.91 12.4 11.33 12.89 9.85C13.38 8.37 14.42 7.17 15.81 6.48C18.68 5.04 22.2 6.2 23.64 9.08L27.7 17.17L37.69 21.87H51.14L61.13 17.17L65.19 9.08C65.89 7.69 67.09 6.65 68.57 6.16C70.05 5.67 71.63 5.78 73.02 6.48C74.41 7.18 75.45 8.38 75.94 9.85C76.43 11.33 76.32 12.91 75.62 14.3L70.66 24.19C70.08 25.35 69.11 26.3 67.93 26.85L57.75 31.64V44.61C57.73 45.57 56.94 46.36 55.98 46.36Z" fill="#E5E5E5"/>
<path d="M36.53 79.27C32.38 79.27 29 75.89 29 71.73V56.75C29 55.78 29.78 55 30.75 55C31.72 55 32.5 55.78 32.5 56.75V71.73C32.5 73.95 34.31 75.77 36.53 75.77C38.75 75.77 40.57 73.96 40.57 71.73V56.75C40.57 55.78 41.35 55 42.32 55C43.29 55 44.07 55.78 44.07 56.75V71.73C44.06 75.89 40.68 79.27 36.53 79.27Z" fill="#E5E5E5"/>
<path d="M50.32 97.04C46.16 97.04 42.78 93.66 42.78 89.5V57.08C42.78 56.11 43.56 55.33 44.53 55.33C45.5 55.33 46.28 56.11 46.28 57.08V89.5C46.28 91.72 48.09 93.54 50.32 93.54C52.54 93.54 54.36 91.73 54.36 89.5V57.08C54.36 56.11 55.14 55.33 56.11 55.33C57.08 55.33 57.86 56.11 57.86 57.08V89.5C57.86 93.66 54.48 97.04 50.32 97.04Z" fill="#E5E5E5"/>
<path d="M44.41 19.01C39.17 19.01 34.9 14.75 34.9 9.5C34.9 4.26 39.16 0 44.41 0C49.65 0 53.91 4.26 53.91 9.5C53.91 14.75 49.65 19.01 44.41 19.01ZM44.41 3.5C41.1 3.5 38.4 6.19 38.4 9.5C38.4 12.81 41.09 15.51 44.41 15.51C47.72 15.51 50.41 12.82 50.41 9.5C50.41 6.19 47.72 3.5 44.41 3.5Z" fill="#E5E5E5"/>
<path d="M44.4 57.25C30.1 57.25 15.68 56.33 1.52 54.5C0.65 54.39 0 53.65 0 52.77V42.97C0 42.47 0.22 41.99 0.59 41.66C0.97 41.33 1.47 41.17 1.97 41.24C15.98 43.04 30.25 43.96 44.4 43.96C58.55 43.96 72.82 43.04 86.83 41.24C87.33 41.17 87.83 41.33 88.21 41.66C88.59 41.99 88.8 42.47 88.8 42.97V52.77C88.8 53.65 88.15 54.39 87.27 54.51C73.13 56.33 58.7 57.25 44.4 57.25ZM3.5 51.23C17.02 52.9 30.77 53.75 44.4 53.75C58.03 53.75 71.79 52.9 85.31 51.23V44.96C71.79 46.62 58.04 47.46 44.4 47.46C30.77 47.46 17.02 46.62 3.5 44.96V51.23Z" fill="#80C342"/>
</g>
<defs>
<clipPath id="clip0">
<rect width="88.81" height="97.04" fill="white"/>
</clipPath>
</defs>
</svg>
