<svg width="150" height="150" viewBox="0 0 150 150" fill="none" xmlns="http://www.w3.org/2000/svg">
<circle cx="75" cy="75" r="73" stroke="#80C342" stroke-width="4"/>
<g clip-path="url(#clip0)">
<path d="M74.6 109.2C55.52 109.2 40 93.68 40 74.6C40 55.52 55.52 40 74.6 40C93.68 40 109.2 55.52 109.2 74.6C109.2 93.68 93.68 109.2 74.6 109.2ZM74.6 44C57.73 44 44 57.73 44 74.6C44 91.47 57.73 105.2 74.6 105.2C91.47 105.2 105.2 91.47 105.2 74.6C105.2 57.73 91.47 44 74.6 44Z" fill="black"/>
<path d="M86.0701 92.7801C86.0601 92.7801 86.0601 92.7801 86.0501 92.7801H63.1501C62.4401 92.7801 61.7901 92.4001 61.4301 91.7901C61.0701 91.1801 61.0601 90.4201 61.4101 89.8001L72.8601 69.2101C73.2101 68.5801 73.8801 68.1801 74.6101 68.1801C75.3401 68.1801 76.0101 68.5701 76.3601 69.2101L87.6901 89.5801C87.9401 89.9101 88.0901 90.3301 88.0901 90.7801C88.0701 91.8901 87.1701 92.7801 86.0701 92.7801ZM66.5501 88.7801H82.6501L74.6001 74.3101L66.5501 88.7801Z" fill="black"/>
<path d="M81.8501 62.6901H67.3501C66.2501 62.6901 65.3501 61.7901 65.3501 60.6901C65.3501 59.5901 66.2501 58.6901 67.3501 58.6901H81.8501C82.9501 58.6901 83.8501 59.5901 83.8501 60.6901C83.8501 61.7901 82.9501 62.6901 81.8501 62.6901Z" fill="#005BAA"/>
<path d="M70.9701 68.97C70.6301 68.97 70.2901 68.88 69.9701 68.7C69.0101 68.15 68.6901 66.92 69.2401 65.97L76.4901 53.41C77.0401 52.45 78.2601 52.13 79.2201 52.68C80.1801 53.23 80.5001 54.46 79.9501 55.41L72.7001 67.97C72.3401 68.61 71.6601 68.97 70.9701 68.97Z" fill="#005BAA"/>
<path d="M78.23 68.97C77.54 68.97 76.87 68.61 76.5 67.97L69.25 55.41C68.7 54.45 69.03 53.23 69.98 52.68C70.94 52.13 72.16 52.46 72.71 53.41L79.96 65.97C80.51 66.93 80.18 68.1501 79.23 68.7001C78.91 68.8901 78.56 68.97 78.23 68.97Z" fill="#005BAA"/>
</g>
<defs>
<clipPath id="clip0">
<rect width="69.2" height="69.2" fill="white" transform="translate(40 40)"/>
</clipPath>
</defs>
</svg>
