<svg width="150" height="150" viewBox="0 0 150 150" fill="none" xmlns="http://www.w3.org/2000/svg">
<circle cx="75" cy="75" r="73" stroke="#80C342" stroke-width="4"/>
<g clip-path="url(#clip0)">
<path d="M74.6 93.81C73.5 93.81 72.6 92.91 72.6 91.81V60.98C72.6 59.88 73.5 58.98 74.6 58.98C75.7 58.98 76.6 59.88 76.6 60.98V91.81C76.6 92.92 75.7 93.81 74.6 93.81Z" fill="#005BAA"/>
<path d="M100.6 93.8101C99.5 93.8101 98.6 92.9101 98.6 91.8101V78.3101H50.6V91.8101C50.6 92.9101 49.7 93.8101 48.6 93.8101C47.5 93.8101 46.6 92.9101 46.6 91.8101V76.3101C46.6 75.2101 47.5 74.3101 48.6 74.3101H100.6C101.7 74.3101 102.6 75.2101 102.6 76.3101V91.8101C102.6 92.9201 101.7 93.8101 100.6 93.8101Z" fill="#005BAA"/>
<path d="M86.32 62.84H63C61.9 62.84 61 61.94 61 60.84V46C61 44.9 61.9 44 63 44H86.33C87.43 44 88.33 44.9 88.33 46V60.84C88.32 61.95 87.43 62.84 86.32 62.84ZM65 58.84H84.33V48H65V58.84Z" fill="black"/>
<path d="M107.2 105.96H92.9C91.8 105.96 90.9 105.06 90.9 103.96V91.9399C90.9 90.8399 91.8 89.9399 92.9 89.9399H107.2C108.3 89.9399 109.2 90.8399 109.2 91.9399V103.96C109.2 105.06 108.3 105.96 107.2 105.96ZM94.89 101.96H105.19V93.9399H94.89V101.96Z" fill="black"/>
<path d="M81.75 105.96H67.45C66.35 105.96 65.45 105.06 65.45 103.96V91.9399C65.45 90.8399 66.35 89.9399 67.45 89.9399H81.75C82.85 89.9399 83.75 90.8399 83.75 91.9399V103.96C83.75 105.06 82.86 105.96 81.75 105.96ZM69.45 101.96H79.75V93.9399H69.45V101.96Z" fill="black"/>
<path d="M56.31 105.96H42C40.9 105.96 40 105.06 40 103.96V91.9399C40 90.8399 40.9 89.9399 42 89.9399H56.31C57.41 89.9399 58.31 90.8399 58.31 91.9399V103.96C58.31 105.06 57.41 105.96 56.31 105.96ZM44 101.96H54.31V93.9399H44V101.96Z" fill="black"/>
</g>
<defs>
<clipPath id="clip0">
<rect width="69.2" height="61.96" fill="white" transform="translate(40 44)"/>
</clipPath>
</defs>
</svg>
