<svg width="150" height="150" viewBox="0 0 150 150" fill="none" xmlns="http://www.w3.org/2000/svg">
<g clip-path="url(#clip0)">
<path d="M82.7301 109.2H68.7301C67.7901 109.2 66.9701 108.54 66.7801 107.62L65.7701 102.9C62.3001 101.67 59.0401 99.79 56.2301 97.38L51.6301 98.87C50.7301 99.16 49.7501 98.78 49.2801 97.97L42.2801 85.84C41.8101 85.02 41.9701 83.99 42.6701 83.36L46.2501 80.12C45.9101 78.29 45.7401 76.45 45.7401 74.61C45.7401 72.77 45.9101 70.92 46.2501 69.1L42.6701 65.86C41.9701 65.23 41.8101 64.19 42.2801 63.38L49.2801 51.25C49.7501 50.43 50.7301 50.06 51.6301 50.35L56.2301 51.84C59.0401 49.43 62.3001 47.55 65.7701 46.32L66.7801 41.6C66.9701 40.66 67.7901 40 68.7301 40H82.7301C83.6701 40 84.4901 40.66 84.6901 41.58L85.7001 46.3C89.1701 47.53 92.4301 49.41 95.2401 51.82L99.8401 50.33C100.74 50.04 101.72 50.42 102.19 51.23L109.19 63.36C109.66 64.18 109.5 65.21 108.8 65.84L105.21 69.08C105.55 70.91 105.72 72.75 105.72 74.59C105.72 76.43 105.55 78.28 105.21 80.1L108.8 83.34C109.5 83.97 109.66 85.01 109.19 85.82L102.19 97.95C101.72 98.77 100.74 99.14 99.8401 98.85L95.2401 97.36C92.4301 99.77 89.1701 101.65 85.7001 102.88L84.6901 107.6C84.4901 108.54 83.6701 109.2 82.7301 109.2ZM70.3501 105.2H81.1201L82.0401 100.94C82.1901 100.23 82.7101 99.66 83.4101 99.45C87.1101 98.31 90.5701 96.31 93.4201 93.66C93.9501 93.17 94.7101 93 95.3901 93.22L99.5501 94.56L104.94 85.23L101.7 82.3C101.16 81.82 100.93 81.08 101.09 80.37C101.52 78.46 101.74 76.52 101.74 74.59C101.74 72.66 101.52 70.72 101.09 68.81C100.93 68.1 101.16 67.37 101.7 66.88L104.94 63.95L99.5501 54.62L95.3901 55.96C94.7001 56.18 93.9501 56.02 93.4201 55.52C90.5701 52.87 87.1001 50.87 83.4101 49.73C82.7201 49.52 82.2001 48.95 82.0401 48.24L81.1101 44H70.3501L69.4301 48.26C69.2801 48.97 68.7601 49.54 68.0601 49.75C64.3601 50.89 60.9001 52.89 58.0501 55.54C57.5201 56.03 56.7601 56.2 56.0801 55.98L51.9201 54.64L46.5401 63.97L49.7801 66.9C50.3201 67.39 50.5501 68.12 50.3901 68.83C49.9601 70.74 49.7401 72.68 49.7401 74.61C49.7401 76.54 49.9601 78.49 50.3901 80.39C50.5501 81.1 50.3201 81.83 49.7801 82.32L46.5401 85.25L51.9201 94.58L56.0801 93.24C56.7601 93.02 57.5201 93.18 58.0501 93.68C60.9001 96.33 64.3701 98.33 68.0601 99.47C68.7501 99.68 69.2701 100.25 69.4301 100.96L70.3501 105.2Z" fill="black"/>
<path d="M75.73 85.93C69.48 85.93 64.4 80.85 64.4 74.6C64.4 68.35 69.48 63.27 75.73 63.27C81.98 63.27 87.06 68.35 87.06 74.6C87.06 80.85 81.98 85.93 75.73 85.93ZM75.73 67.26C71.69 67.26 68.4 70.55 68.4 74.59C68.4 78.63 71.69 81.92 75.73 81.92C79.77 81.92 83.06 78.63 83.06 74.59C83.06 70.55 79.77 67.26 75.73 67.26Z" fill="black"/>
<path d="M76.33 94.66C65.67 94.66 57 85.99 57 75.33C57 64.67 65.67 56 76.33 56C86.99 56 95.66 64.67 95.66 75.33C95.66 85.99 86.99 94.66 76.33 94.66ZM76.33 59.99C67.88 59.99 61 66.87 61 75.32C61 83.78 67.88 90.65 76.33 90.65C84.79 90.65 91.66 83.77 91.66 75.32C91.66 66.87 84.79 59.99 76.33 59.99Z" fill="#005BAA"/>
</g>
<circle cx="75" cy="75" r="73" stroke="#80C342" stroke-width="4"/>
<defs>
<clipPath id="clip0">
<rect width="67.46" height="69.2" fill="white" transform="translate(42 40)"/>
</clipPath>
</defs>
</svg>
